<svg xmlns="http://www.w3.org/2000/svg" width="15" height="12.78" viewBox="0 0 15 12.78">
  <g id="Group_101" data-name="Group 101" transform="translate(-1056 -720.96)">
    <g id="Path_3531" data-name="Path 3531" transform="translate(1056 725.22)" fill="#fff">
      <path d="M 3.489784479141235 7.666180610656738 L 3.244169950485229 6.855093955993652 L 3.136640071868896 6.500003814697266 L 2.765630006790161 6.500003814697266 L 0.5 6.500003814697266 L 0.5 0.5000039339065552 L 9.5 0.5000039339065552 L 9.5 6.500003814697266 L 5.114260196685791 6.500003814697266 L 4.937970161437988 6.500003814697266 L 4.800660133361816 6.610573768615723 L 3.489784479141235 7.666180610656738 Z" stroke="none"/>
      <path d="M 1 1.000003814697266 L 1 6.000003814697266 L 3.50763988494873 6.000003814697266 L 3.753495693206787 6.811868190765381 L 4.761680126190186 6.000003814697266 L 9 6.000003814697266 L 9 1.000003814697266 L 1 1.000003814697266 M 0 3.814697265625e-06 L 10 3.814697265625e-06 L 10 7.000003814697266 L 5.114260196685791 7.000003814697266 L 3.226069927215576 8.520503997802734 L 2.765620231628418 7.000003814697266 L 0 7.000003814697266 L 0 3.814697265625e-06 Z" stroke="none" fill="#000"/>
    </g>
    <g id="Path_3532" data-name="Path 3532" transform="translate(1061 720.96)" fill="#fff">
      <path d="M 6.51021671295166 7.666181564331055 L 5.199339866638184 6.610573768615723 L 5.062029838562012 6.500003814697266 L 4.885739803314209 6.500003814697266 L 0.5 6.500003814697266 L 0.5 0.5000039339065552 L 9.5 0.5000039339065552 L 9.5 6.500003814697266 L 7.234379768371582 6.500003814697266 L 6.863369941711426 6.500003814697266 L 6.755839824676514 6.85508394241333 L 6.51021671295166 7.666181564331055 Z" stroke="none"/>
      <path d="M 1 1.000003814697266 L 1 6.000003814697266 L 5.238319873809814 6.000003814697266 L 6.246499061584473 6.811863899230957 L 6.492350101470947 6.000003814697266 L 9 6.000003814697266 L 9 1.000003814697266 L 1 1.000003814697266 M 0 3.814697265625e-06 L 10 3.814697265625e-06 L 10 7.000003814697266 L 7.234370231628418 7.000003814697266 L 6.773930072784424 8.520503997802734 L 4.885739803314209 7.000003814697266 L 0 7.000003814697266 L 0 3.814697265625e-06 Z" stroke="none" fill="#000"/>
    </g>
  </g>
</svg>
