<svg xmlns="http://www.w3.org/2000/svg" width="15" height="7.5" viewBox="0 0 15 7.5">
  <path id="iconmonstr-infinity-1" d="M11.607,6C9.824,6,8.727,7.352,7.5,8.626,6.273,7.353,5.176,6,3.393,6A3.425,3.425,0,0,0,0,9.75,3.425,3.425,0,0,0,3.393,13.5c1.784,0,2.88-1.352,4.107-2.626C8.727,12.148,9.824,13.5,11.607,13.5A3.425,3.425,0,0,0,15,9.75,3.425,3.425,0,0,0,11.607,6ZM3.393,12.25a2.207,2.207,0,0,1-2.174-2.5,2.207,2.207,0,0,1,2.174-2.5c1.444,0,2.324,1.281,3.353,2.5C5.717,10.969,4.837,12.25,3.393,12.25Zm8.214,0c-1.444,0-2.324-1.281-3.353-2.5,1.029-1.219,1.909-2.5,3.353-2.5a2.207,2.207,0,0,1,2.174,2.5A2.207,2.207,0,0,1,11.607,12.25Z" transform="translate(0 -6)"/>
</svg>
