<svg xmlns="http://www.w3.org/2000/svg" width="427.689" height="647.043" viewBox="0 0 427.689 647.043">
  <g id="Group_52" data-name="Group 52" transform="translate(-114 -235.854)">
    <ellipse id="Ellipse_2" data-name="Ellipse 2" cx="139" cy="8" rx="139" ry="8" transform="translate(114 866.896)" fill="#aec5f7"/>
    <g id="Group_18" data-name="Group 18" transform="translate(-12055 -1402.217)">
      <path id="path246" d="M2489.8-1858.67s-9.7-17.244,0-20.753,14.1-.271,14.557,3.652-3.7,19.41-3.7,19.41l-10.862-2.309" transform="translate(10006.395 3559.429)" fill="#f8cfb2"/>
      <path id="path248" d="M2305.8-1721.342a313.5,313.5,0,0,1-48.641,5,270.781,270.781,0,0,1-37.386-1.683c-2.941-.334-5.766-.717-8.479-1.125-28.642-4.343-44.463-12.046-44.463-12.046s26.173-54.789,47.319-52.686c24.8,2.474,66.835,24.734,71.013,18.491,4.7-7.034,8.643-67.355,8.643-67.355,10.995-7.528,17.562.409,17.562.409s21.485,106.121-5.569,111" transform="translate(10198.167 3532.389)" fill="#16d696"/>
      <path id="path250" d="M2375.959-1593.551a313.513,313.513,0,0,1-48.641,5,270.744,270.744,0,0,1-37.386-1.683c-6.6-20.986-11.345-42.424,1.927-29.5,23.413,22.792,84.1,26.184,84.1,26.184" transform="translate(10128.011 3404.598)" fill="#1cc18a"/>
      <path id="path252" d="M2161.274-449.831s-1.879,21.783,2.724,24.044l58.919-.117s0-6.8-9.466-8.314-26.088-7.05-28.9-19.388-23.275,3.775-23.275,3.775" transform="translate(10201.743 2703.233)" fill="#0b2969"/>
      <path id="path254" d="M2157.264-1202.238c-.292,14.239-.977,28.929-2.315,42.132-6.365,62.646-8.6,138.341-9.513,152.935-1.588,25.329-6.589,65.8-6.589,65.8s-9.928,9.423-29.279,4.927c0,0-16.028-58.287-19.612-119.664l-.159-3.031c-.414-8.117-.85-17.392-1.3-27.4-2.947-67.015-6.148-166.564-6.148-166.564l73.933-17.36s1.7,32.719.977,68.226" transform="translate(10249.01 3192.039)" fill="#143f9b"/>
      <path id="path256" d="M2157.264-1202.238c-18.741,32.326-54.454,91.888-68.762,115.7-2.947-67.015-6.148-166.564-6.148-166.564l73.933-17.36s1.7,32.719.977,68.226" transform="translate(10249.01 3192.039)" fill="#0b2969"/>
      <path id="path258" d="M1777.063-1256.4s-12.03,14.148-13.113,18.072-3.01,18.056-1.975,22.3,9.031-11.844,11.94-13.559-2.182,6.4-1.189,7.751,6.737-4.736,8.977-6.8,2.017-13.156,4.709-19.718-9.349-8.048-9.349-8.048" transform="translate(10442.001 3183.573)" fill="#f8cfb2"/>
      <path id="path260" d="M1780.076-506.1s-10.49,9.567-8.441,16.368,11.51,11.335,12.789,19.643,6.392,12.848,10.995,12.848h21.953s3.387-5.85-4.8-7.613-11.271-11.531-10.756-20.594a160,160,0,0,0-.77-21.156l-17.392-4.029-3.578,4.534" transform="translate(10436.169 2734.756)" fill="#0b2969"/>
      <path id="path262" d="M1970.64-1257.066S1901.427-1108.977,1864.594-1044s-48.338,83.107-48.338,83.107-21.1-8.308-23.02-13.979c0,0,14.085-125.44,38.75-156.02,13.936-17.275,30.309-69.128,31.073-87.264s16.936-61.414,16.936-61.414l90.645,22.5" transform="translate(10423.01 3197.519)" fill="#143f9b"/>
      <path id="path264" d="M2102.858-1530.192s-27.522,18.4-66.479,16.691c-17.095-.743-51-5.59-56.477-19.187-1.285-3.2-.345-7.247,1.582-13.464,5.006-16.161,16.665-46.937,13.145-115.173a112.2,112.2,0,0,1,.457-17.9c3.668-33.611,22.929-53.514,41.548-60.018,45.4-15.874,60.538,6.116,60.538,6.116s20.068,15.9,23.094,49.082c6.047,66.373-17.408,153.854-17.408,153.854" transform="translate(10311.023 3477.627)" fill="#16d696"/>
      <path id="path266" d="M2156.688-1803.693s20.833,12.667,43.427,9.084c0,0,4.47-1.136,2.272-6.376a68.259,68.259,0,0,0,2.007-7,105.791,105.791,0,0,0,2.585-11.42l-12.821-13.474-12.147-12.88c-3.355,30.781-25.324,42.063-25.324,42.063" transform="translate(10204.274 3538.264)" fill="#f8cfb2"/>
      <path id="path268" d="M2215.408-1816.436s6.976,18.65,24.326,26.1c1.98-7.241,3.271-14.812,3.271-14.812L2229.5-1815.23l-14.09-1.205" transform="translate(10168.935 3520.619)" fill="#efb994"/>
      <path id="path270" d="M2250.2-1879.465s-39.764,4.969-42.557-19.468-9.806-40.253,15.465-44.457,31.281,4.576,34.227,12.513,3.137,49.49-7.135,51.412" transform="translate(10175.444 3597.68)" fill="#f8cfb2"/>
      <path id="path272" d="M2176.189-1970.228c-.345-.425-1.157-.791-2.994-.961a7.472,7.472,0,0,1,3.477-.839c.478-2.548,2.012-7.029,6.461-7.964a5.519,5.519,0,0,0-2.824,3.886c5.3-5.049,16.383-8.452,46.581-4.916,39.8,4.661,25.679,29.72,20.392,32.571s-17.971-5.994-27.628-5.6-12.02,14.244-15.354,16.033-1.927-1.545-6.27-3.706-5.043,5.139-3.944,9.949-5.213,10.862-5.213,10.862l-5.888-6.843c-5.888-6.838-10.613-35.05-7.6-40.911.265-.515.531-1.041.8-1.566" transform="translate(10194.34 3620.546)" fill="#2c1200"/>
      <path id="path274" d="M2382.992-1876.092l-67.509.605-.462-10.156,67.3-5.219.674,14.77" transform="translate(10108.985 3565.41)" fill="#296cfb"/>
      <path id="path276" d="M2501.349-1884.392l-73.5,1.062-.839-18.465,73.29-5.68,1.052,23.083" transform="translate(10041.589 3575.409)" fill="#296cfb"/>
      <path id="path278" d="M2642.787-1891.914l-61.982.074-1.131-24.926,61.728-5.617,1.386,30.468" transform="translate(9949.711 3584.38)" fill="#296cfb"/>
      <path id="path280" d="M2732.73-1894.174h0a3.458,3.458,0,0,0,3.3-3.615l-1.455-32.024a3.466,3.466,0,0,0-3.615-3.307h0a3.47,3.47,0,0,0-3.307,3.621l1.454,32.024a3.463,3.463,0,0,0,3.621,3.3" transform="translate(9860.653 3590.845)" fill="#296cfb"/>
      <path id="path282" d="M2310.21-1868.68h0a3.084,3.084,0,0,1-3.217-2.936l-.377-8.309a3.081,3.081,0,0,1,2.936-3.223h0a3.081,3.081,0,0,1,3.217,2.941l.377,8.308a3.08,3.08,0,0,1-2.936,3.217" transform="translate(10114.046 3560.769)" fill="#296cfb"/>
      <path id="path284" d="M1984.768-1446.845c5.006-16.161,16.665-46.937,13.145-115.173a112.181,112.181,0,0,1,.457-17.9h.005c14.939-1.285,37.784,14.865,37.784,14.865s-14.069,85.761-51.391,118.21" transform="translate(10307.739 3378.321)" fill="#1cc18a"/>
      <path id="path286" d="M1934.92-1740.116s-38.315,6.583-58.3,30.978-52.129,58.792-59.726,70.838-28.7,94.022-28.7,94.022,1.4,2.633,7.215,4.168a13.7,13.7,0,0,0,9.609-.807s27.952-47.839,38.474-71.74c4.369-9.928,79.964-49.251,108.383-45.174,11.159,1.6-16.957-82.284-16.957-82.284" transform="translate(10426.042 3474.688)" fill="#16d696"/>
      <path id="path288" d="M2484.714-1902.261s8.24,5.044,13.171,2.909,4.491-4.083,4.491-4.083-14.892-4.136-17.663,1.173" transform="translate(10006.859 3573.9)" fill="#f8cfb2"/>
      <path id="path290" d="M2024.69-1675.842s-16.813,106.158-136.111,137.067l-13,25.637,22.828,3.865s135.82-39.35,133.988-168.443l-7.709,1.874" transform="translate(10373.45 3437.133)" fill="#fff"/>
      <path id="path292" d="M2235.193-1715.556l-5.505.536v7.974l8.112,8.431,7.714-1.874v-11.064l-5.548-4h-4.773" transform="translate(10160.341 3459.907)" fill="#e2e2e2"/>
      <path id="path294" d="M2162.768-1768.569s-5.33,1.2-17.52,11.329c0,0,12.12,25.722,37.688,28.8,0,0-.408-11.935,1.439-19.022,0,0-20.264-7.257-21.608-21.108" transform="translate(10211.158 3491.812)" fill="#1cc18a"/>
      <path id="path296" d="M2243.514-1726.244s12.476,6.625,13.4,16.941c0,0,4.768-7.555,3.387-12.784s-5.659-11.229-5.659-11.229.425,6.3-11.127,7.072" transform="translate(10152.021 3470.595)" fill="#1cc18a"/>
    </g>
  </g>
</svg>
